<svg width="23" height="23" viewBox="0 0 23 23" fill="none" xmlns="http://www.w3.org/2000/svg">
<g clip-path="url(#clip0_6_1276)">
<mask id="mask0_6_1276" style="mask-type:luminance" maskUnits="userSpaceOnUse" x="0" y="-1" width="23" height="24">
<path d="M23 -0.000244141H0V22.9998H23V-0.000244141Z" fill="white"/>
</mask>
<g mask="url(#mask0_6_1276)">
<path d="M7 3.99976H6.95478C5.4264 3.99976 4.18597 5.25882 4.18597 6.81226V10.1123C4.18597 10.3138 4.10198 10.5051 3.95431 10.6382L3 11.4998L3.95431 12.3613C4.10198 12.4944 4.18597 12.6857 4.18597 12.8873V16.1873C4.18597 17.7407 5.4264 18.9998 6.95478 18.9998H7" stroke="#018EFF" stroke-width="1.6" stroke-linecap="round" stroke-linejoin="round"/>
<path d="M17 3.99976H17.0452C18.5736 3.99976 19.814 5.25882 19.814 6.81226V10.1123C19.814 10.3138 19.898 10.5051 20.0457 10.6382L21 11.4998L20.0457 12.3613C19.898 12.4944 19.814 12.6857 19.814 12.8873V16.1873C19.814 17.7407 18.5736 18.9998 17.0452 18.9998H17" stroke="#018EFF" stroke-width="1.6" stroke-linecap="round" stroke-linejoin="round"/>
<path d="M9 14.9998C9 15.5518 8.552 15.9998 8 15.9998C7.448 15.9998 7 15.5518 7 14.9998C7 14.4478 7.448 13.9998 8 13.9998C8.552 13.9998 9 14.4478 9 14.9998Z" fill="#018EFF"/>
<path d="M13 14.9998C13 15.5518 12.552 15.9998 12 15.9998C11.448 15.9998 11 15.5518 11 14.9998C11 14.4478 11.448 13.9998 12 13.9998C12.552 13.9998 13 14.4478 13 14.9998Z" fill="#018EFF"/>
<path d="M16 14.9998C16 15.5518 15.552 15.9998 15 15.9998C14.448 15.9998 14 15.5518 14 14.9998C14 14.4478 14.448 13.9998 15 13.9998C15.552 13.9998 16 14.4478 16 14.9998Z" fill="#018EFF"/>
</g>
</g>
<defs>
<clipPath id="clip0_6_1276">
<rect width="23" height="23" fill="white" transform="translate(0 -0.000244141)"/>
</clipPath>
</defs>
</svg>
