<svg width="48" height="50" viewBox="0 0 48 50" fill="none" xmlns="http://www.w3.org/2000/svg">
<path d="M44.2094 9.21583C45.3644 5.07708 43.6319 0.553326 43.5357 0.264576C43.2469 -0.409174 42.5732 -0.986674 41.8032 -0.986674C41.6107 -0.986674 37.1832 -1.37167 32.7557 1.99708C29.2907 1.32333 25.3444 1.13083 25.1519 1.13083C25.0557 1.13083 25.0557 1.13083 24.9594 1.13083C24.7669 1.13083 20.8207 1.32333 17.3557 1.99708C12.9282 -1.37167 8.50068 -0.986674 8.30818 -0.986674C7.53818 -0.890424 6.86443 -0.409174 6.57568 0.264576C6.47943 0.457076 4.65068 5.07708 5.90193 9.21583C3.68818 12.2958 1.95568 16.3383 3.49568 23.5571C4.93943 30.1021 10.3294 33.7596 15.9119 35.0108C15.4307 36.3583 15.2382 37.9946 15.0457 39.7271C12.7357 39.8233 11.2919 38.4758 9.27068 36.3583C7.53818 34.5296 5.61318 32.4121 2.43693 31.7383C1.37818 31.4496 0.319429 32.1233 0.0306789 33.2783C-0.161821 34.4333 0.511929 35.4921 1.66693 35.6846C3.49568 36.0696 4.74693 37.4171 6.28693 39.0533C8.30818 41.1708 10.6182 43.7696 14.7569 43.7696H14.8532C14.8532 45.9833 15.0457 48.1008 15.1419 49.8333C15.2382 50.9883 16.2007 51.7583 17.3557 51.6621C18.5107 51.5658 19.2807 50.6033 19.1844 49.4483C18.6069 42.9033 19.0882 35.9733 20.1469 35.0108C20.9169 34.5296 21.3982 33.6633 21.1094 32.7008C20.9169 31.8346 20.1469 31.1608 19.1844 31.1608C18.3182 31.1608 9.27068 30.6796 7.53818 22.6908C6.09443 16.1458 7.92318 13.2583 9.84818 10.9483C10.3294 10.3708 10.4257 9.50458 10.1369 8.73458C9.36693 7.09833 9.65568 4.78833 10.0407 3.24833C11.3882 3.44083 13.4094 4.01833 15.5269 5.84708C16.0082 6.32833 16.6819 6.42458 17.3557 6.32833C20.3394 5.55833 24.3819 5.36583 25.0557 5.36583C25.6332 5.36583 29.7719 5.55833 32.7557 6.32833C33.4294 6.52083 34.1032 6.32833 34.5844 5.84708C36.7019 4.01833 38.8194 3.44083 40.0707 3.24833C40.4557 4.69208 40.7444 7.00208 39.9744 8.73458C39.6857 9.40833 39.7819 10.2746 40.2632 10.9483C42.1882 13.2583 43.9207 16.1458 42.5732 22.6908C40.8407 30.6796 31.7932 31.1608 30.7344 31.2571C29.7719 31.2571 29.0019 31.9308 28.8094 32.7971C28.6169 33.6633 29.0019 34.6258 29.7719 35.1071C30.9269 36.0696 31.4082 42.9033 30.8307 49.5446C30.7344 50.6996 31.6007 51.6621 32.6594 51.7583C32.7557 51.7583 32.7557 51.7583 32.8519 51.7583C33.9107 51.7583 34.7769 50.9883 34.8732 49.9296C35.2582 45.6946 35.5469 39.1496 34.1994 35.0108C39.7819 33.8558 45.1719 30.1021 46.6157 23.5571C48.1557 16.3383 46.5194 12.2958 44.2094 9.21583Z" fill="#018EFF"/>
</svg>
