<svg width="23" height="23" viewBox="0 0 23 23" fill="none" xmlns="http://www.w3.org/2000/svg">
<g clip-path="url(#clip0_6_1294)">
<path d="M18.6875 8.8512C18.6875 10.2773 18.2645 11.5853 17.5367 12.677C16.4745 14.2505 14.7926 15.3619 12.8353 15.6471C12.5009 15.7061 12.1567 15.7356 11.8026 15.7356C11.4485 15.7356 11.1043 15.7061 10.7699 15.6471C8.81259 15.3619 7.13072 14.2505 6.06848 12.677C5.34065 11.5853 4.91772 10.2773 4.91772 8.8512C4.91772 5.04511 7.99624 1.9668 11.8026 1.9668C15.6089 1.9668 18.6875 5.04511 18.6875 8.8512Z" stroke="#018EFF" stroke-width="1.33333" stroke-linecap="round" stroke-linejoin="round"/>
<path d="M20.9003 18.1655L19.2775 18.5491C18.9135 18.6376 18.6283 18.913 18.5496 19.2769L18.2054 20.7226C18.0185 21.5094 17.0153 21.7454 16.494 21.1258L11.8025 15.7363L7.11088 21.1357C6.5896 21.7552 5.58638 21.5192 5.3995 20.7324L5.05526 19.2867C4.96674 18.9228 4.68151 18.6376 4.32743 18.5589L2.70457 18.1754C1.95707 17.9983 1.69151 17.064 2.23246 16.5231L6.06832 12.6875C7.13056 14.2611 8.81243 15.3724 10.7697 15.6576C11.1041 15.7166 11.4484 15.7461 11.8025 15.7461C12.1565 15.7461 12.5008 15.7166 12.8352 15.6576C14.7925 15.3724 16.4743 14.2611 17.5366 12.6875L21.3724 16.5231C21.9134 17.0542 21.6478 17.9885 20.9003 18.1655Z" stroke="#018EFF" stroke-width="1.33333" stroke-linecap="round" stroke-linejoin="round"/>
<path d="M12.3726 5.88118L12.9529 7.04151C13.0315 7.19884 13.2381 7.35618 13.4249 7.38568L14.4772 7.56267C15.1459 7.67084 15.3033 8.16252 14.8214 8.64435L14.0051 9.4605C13.8675 9.59817 13.7888 9.86369 13.838 10.0604L14.074 11.0732C14.2608 11.8697 13.838 12.1844 13.1299 11.7615L12.1465 11.1814C11.9694 11.0732 11.6744 11.0732 11.4974 11.1814L10.514 11.7615C9.80587 12.1745 9.38299 11.8697 9.56984 11.0732L9.80587 10.0604C9.84523 9.87352 9.77636 9.59817 9.63868 9.4605L8.82244 8.64435C8.34056 8.16252 8.49791 7.68067 9.16664 7.56267L10.2189 7.38568C10.396 7.35618 10.6025 7.19884 10.6811 7.04151L11.2614 5.88118C11.5466 5.25185 12.058 5.25185 12.3726 5.88118Z" stroke="#018EFF" stroke-width="1.06667" stroke-linecap="round" stroke-linejoin="round"/>
</g>
<defs>
<clipPath id="clip0_6_1294">
<rect width="23" height="23" fill="white" transform="translate(0 -0.000244141)"/>
</clipPath>
</defs>
</svg>
