<svg width="40" height="40" viewBox="0 0 40 40" fill="none" xmlns="http://www.w3.org/2000/svg">
<g filter="url(#filter0_i_37_136)">
<path d="M33.0888 10.809C33.8226 8.45561 32.7219 5.88327 32.6607 5.71908C32.4773 5.33596 32.0492 5.00758 31.56 5.00758C31.4377 5.00758 28.6248 4.78866 25.8119 6.70423C23.6104 6.32111 21.1033 6.21165 20.981 6.21165C20.9198 6.21165 20.9198 6.21165 20.8587 6.21165C20.7364 6.21165 18.2292 6.32111 16.0278 6.70423C13.2149 4.78866 10.402 5.00758 10.2797 5.00758C9.79046 5.06231 9.36241 5.33596 9.17896 5.71908C9.11781 5.82854 7.95595 8.45561 8.7509 10.809C7.34445 12.5604 6.24374 14.8591 7.22215 18.9639C8.1394 22.6856 11.5638 24.7654 15.1105 25.4769C14.8048 26.2431 14.6825 27.1735 14.5602 28.1587C13.0926 28.2134 12.1753 27.4472 10.8912 26.2431C9.79046 25.2032 8.56745 23.9991 6.54949 23.616C5.87684 23.4518 5.20418 23.8349 5.02073 24.4917C4.89843 25.1485 5.32648 25.7505 6.06029 25.86C7.22215 26.0789 8.0171 26.8451 8.99551 27.7755C10.2797 28.9796 11.7473 30.4574 14.3767 30.4574H14.4379C14.4379 31.7162 14.5602 32.9202 14.6213 33.9054C14.6825 34.5622 15.294 35 16.0278 34.9453C16.7616 34.8905 17.2508 34.3432 17.1897 33.6865C16.8228 29.9648 17.1285 26.0242 17.8012 25.4769C18.2904 25.2032 18.5961 24.7106 18.4127 24.1633C18.2904 23.6707 17.8012 23.2876 17.1897 23.2876C16.6393 23.2876 10.8912 23.014 9.79046 18.4713C8.87321 14.7496 10.0351 13.1077 11.2581 11.7942C11.5638 11.4658 11.625 10.9732 11.4415 10.5354C10.9523 9.60496 11.1358 8.29142 11.3804 7.41573C12.2365 7.52519 13.5206 7.85357 14.8659 8.89346C15.1717 9.16711 15.5997 9.22184 16.0278 9.16711C17.9235 8.72927 20.4918 8.6198 20.9198 8.6198C21.2867 8.6198 23.9162 8.72927 25.8119 9.16711C26.2399 9.27657 26.668 9.16711 26.9737 8.89346C28.319 7.85357 29.6643 7.52519 30.4593 7.41573C30.7039 8.23669 30.8873 9.55023 30.3981 10.5354C30.2147 10.9185 30.2758 11.4111 30.5816 11.7942C31.8046 13.1077 32.9053 14.7496 32.0492 18.4713C30.9485 23.014 25.2004 23.2876 24.5277 23.3424C23.9162 23.3424 23.427 23.7255 23.3047 24.2181C23.1824 24.7106 23.427 25.2579 23.9162 25.5316C24.65 26.0789 24.9558 29.9648 24.5889 33.7412C24.5277 34.398 25.0781 34.9453 25.7507 35C25.8119 35 25.8119 35 25.873 35C26.5457 35 27.096 34.5622 27.1572 33.9601C27.4018 31.552 27.5852 27.8303 26.7291 25.4769C30.2758 24.8201 33.7003 22.6856 34.6175 18.9639C35.5959 14.8591 34.5564 12.5604 33.0888 10.809Z" fill="#018EFF"/>
</g>
<defs>
<filter id="filter0_i_37_136" x="5" y="5" width="30" height="34" filterUnits="userSpaceOnUse" color-interpolation-filters="sRGB">
<feFlood flood-opacity="0" result="BackgroundImageFix"/>
<feBlend mode="normal" in="SourceGraphic" in2="BackgroundImageFix" result="shape"/>
<feColorMatrix in="SourceAlpha" type="matrix" values="0 0 0 0 0 0 0 0 0 0 0 0 0 0 0 0 0 0 127 0" result="hardAlpha"/>
<feOffset dy="4"/>
<feGaussianBlur stdDeviation="2"/>
<feComposite in2="hardAlpha" operator="arithmetic" k2="-1" k3="1"/>
<feColorMatrix type="matrix" values="0 0 0 0 0 0 0 0 0 0 0 0 0 0 0 0 0 0 0.25 0"/>
<feBlend mode="normal" in2="shape" result="effect1_innerShadow_37_136"/>
</filter>
</defs>
</svg>
