<svg width="96" height="97" viewBox="0 0 96 97" fill="none" xmlns="http://www.w3.org/2000/svg">
<g filter="url(#filter0_i_31_1272)">
<path d="M39.001 71.8359L50.3881 81.1229L39.001 90.41" stroke="white" stroke-width="9" stroke-linecap="round" stroke-linejoin="round"/>
<path d="M20.3337 25.1674C25.4905 25.1674 29.6674 20.9905 29.6674 15.8337C29.6674 10.6768 25.4905 6.5 20.3337 6.5C15.1768 6.5 11 10.6768 11 15.8337C11 20.9905 15.1768 25.1674 20.3337 25.1674Z" stroke="white" stroke-width="9" stroke-linecap="round" stroke-linejoin="round"/>
<path d="M76.3356 90.5033C81.4925 90.5033 85.6693 86.3265 85.6693 81.1696C85.6693 76.0128 81.4925 71.8359 76.3356 71.8359C71.1788 71.8359 67.002 76.0128 67.002 81.1696C67.002 86.3265 71.1788 90.5033 76.3356 90.5033Z" stroke="white" stroke-width="9" stroke-linecap="round" stroke-linejoin="round"/>
<path d="M29.6674 15.8335H71.6689C75.3837 15.8335 78.9445 17.5556 81.5673 20.617C84.1947 23.6785 85.6694 27.8366 85.6694 32.1674C85.6694 36.4983 84.1947 40.6518 81.5673 43.7179C78.9445 46.7793 75.3837 48.5014 71.6689 48.5014H25.0005C21.2857 48.5014 17.7249 50.2234 15.1022 53.2849C12.4747 56.351 11 60.5045 11 64.8353C11 69.1661 12.4747 73.3196 15.1022 76.3857C17.7249 79.4472 21.2857 81.1693 25.0005 81.1693H48.3347" stroke="white" stroke-width="9" stroke-linecap="round" stroke-linejoin="round"/>
</g>
<defs>
<filter id="filter0_i_31_1272" x="0" y="0.5" width="96" height="100" filterUnits="userSpaceOnUse" color-interpolation-filters="sRGB">
<feFlood flood-opacity="0" result="BackgroundImageFix"/>
<feBlend mode="normal" in="SourceGraphic" in2="BackgroundImageFix" result="shape"/>
<feColorMatrix in="SourceAlpha" type="matrix" values="0 0 0 0 0 0 0 0 0 0 0 0 0 0 0 0 0 0 127 0" result="hardAlpha"/>
<feOffset dy="4"/>
<feGaussianBlur stdDeviation="2"/>
<feComposite in2="hardAlpha" operator="arithmetic" k2="-1" k3="1"/>
<feColorMatrix type="matrix" values="0 0 0 0 0 0 0 0 0 0 0 0 0 0 0 0 0 0 0.25 0"/>
<feBlend mode="normal" in2="shape" result="effect1_innerShadow_31_1272"/>
</filter>
</defs>
</svg>
