<svg width="97" height="97" viewBox="0 0 97 97" fill="none" xmlns="http://www.w3.org/2000/svg">
<path d="M49.8118 49.38C51.9461 47.5325 53.658 45.2475 54.8313 42.6801C56.0046 40.1126 56.6118 37.3228 56.6118 34.5C56.6118 29.1957 54.5047 24.1086 50.754 20.3579C47.0032 16.6071 41.9161 14.5 36.6118 14.5C31.3075 14.5 26.2204 16.6071 22.4697 20.3579C18.719 24.1086 16.6118 29.1957 16.6118 34.5C16.6118 37.3228 17.219 40.1126 18.3923 42.6801C19.5656 45.2475 21.2775 47.5325 23.4118 49.38C17.8124 51.9155 13.0617 56.0101 9.72774 61.1742C6.3938 66.3382 4.6177 72.3532 4.61182 78.5C4.61182 79.5609 5.03324 80.5783 5.78339 81.3284C6.53353 82.0786 7.55095 82.5 8.61182 82.5C9.67268 82.5 10.6901 82.0786 11.4402 81.3284C12.1904 80.5783 12.6118 79.5609 12.6118 78.5C12.6118 72.1348 15.1404 66.0303 19.6413 61.5294C24.1421 57.0286 30.2466 54.5 36.6118 54.5C42.977 54.5 49.0815 57.0286 53.5824 61.5294C58.0833 66.0303 60.6118 72.1348 60.6118 78.5C60.6118 79.5609 61.0332 80.5783 61.7834 81.3284C62.5335 82.0786 63.5509 82.5 64.6118 82.5C65.6727 82.5 66.6901 82.0786 67.4402 81.3284C68.1904 80.5783 68.6118 79.5609 68.6118 78.5C68.6059 72.3532 66.8298 66.3382 63.4959 61.1742C60.162 56.0101 55.4113 51.9155 49.8118 49.38ZM36.6118 46.5C34.2384 46.5 31.9184 45.7962 29.945 44.4776C27.9716 43.1591 26.4335 41.2849 25.5253 39.0922C24.617 36.8995 24.3794 34.4867 24.8424 32.1589C25.3054 29.8311 26.4483 27.693 28.1265 26.0147C29.8048 24.3365 31.943 23.1936 34.2707 22.7306C36.5985 22.2676 39.0113 22.5052 41.204 23.4134C43.3967 24.3217 45.2709 25.8598 46.5895 27.8332C47.908 29.8065 48.6118 32.1266 48.6118 34.5C48.6118 37.6826 47.3475 40.7348 45.0971 42.9853C42.8467 45.2357 39.7944 46.5 36.6118 46.5ZM75.5718 47.78C78.1317 44.8973 79.8038 41.3362 80.387 37.5254C80.9702 33.7145 80.4395 29.8163 78.8589 26.3C77.2782 22.7837 74.715 19.7992 71.4777 17.7057C68.2404 15.6122 64.467 14.499 60.6118 14.5C59.5509 14.5 58.5335 14.9214 57.7834 15.6716C57.0332 16.4217 56.6118 17.4391 56.6118 18.5C56.6118 19.5609 57.0332 20.5783 57.7834 21.3284C58.5335 22.0786 59.5509 22.5 60.6118 22.5C63.7944 22.5 66.8467 23.7643 69.0971 26.0147C71.3475 28.2652 72.6118 31.3174 72.6118 34.5C72.6062 36.601 72.049 38.6636 70.9961 40.4817C69.9431 42.2998 68.4313 43.8095 66.6118 44.86C66.0188 45.2021 65.5235 45.6907 65.1733 46.279C64.8231 46.8673 64.6298 47.5356 64.6118 48.22C64.5951 48.8991 64.7515 49.5712 65.0665 50.173C65.3814 50.7749 65.8444 51.2866 66.4118 51.66L67.9718 52.7L68.4918 52.98C73.3134 55.2669 77.3811 58.884 80.2157 63.4053C83.0504 67.9266 84.534 73.1637 84.4918 78.5C84.4918 79.5609 84.9132 80.5783 85.6634 81.3284C86.4135 82.0786 87.4309 82.5 88.4918 82.5C89.5527 82.5 90.5701 82.0786 91.3202 81.3284C92.0704 80.5783 92.4918 79.5609 92.4918 78.5C92.5245 72.3617 90.9871 66.317 88.0257 60.9402C85.0643 55.5635 80.7772 51.0332 75.5718 47.78Z" fill="white"/>
</svg>
