<svg width="50" height="44" viewBox="0 0 50 44" fill="none" xmlns="http://www.w3.org/2000/svg">
<g filter="url(#filter0_i_29_246)">
<path fill-rule="evenodd" clip-rule="evenodd" d="M22.8935 21.1482C21.5696 22.0573 20.1318 23.0463 18.5806 24.1154C17.0804 25.1672 15.7217 25.6798 14.5042 25.653C13.1621 25.6231 10.5803 24.8781 8.6611 24.2412C8.3792 24.1475 8.10425 24.0594 7.83895 23.974C5.88815 23.3478 4.45558 22.8877 4.599 21.7199C4.68386 21.0288 5.616 20.3219 7.3954 19.5993C18.3535 14.7248 25.6607 11.5112 29.3169 9.95855C39.756 5.52535 41.9249 4.75525 43.3389 4.72955C43.6498 4.7242 44.345 4.8029 44.7955 5.176C45.1757 5.4911 45.2804 5.9167 45.3304 6.2154C45.3804 6.5141 45.4429 7.19455 45.3932 7.7263C44.8275 13.7949 42.3797 28.5221 41.1346 35.3191C40.6076 38.1952 39.57 39.1596 38.5655 39.2538C36.837 39.4163 35.4377 38.3978 33.8803 37.2643C33.4711 36.9664 33.0507 36.6604 32.6108 36.3659C30.8837 35.21 29.549 34.282 28.2107 33.3514C26.9855 32.4994 25.7572 31.6453 24.2221 30.6126C21.028 28.4636 22.3652 27.1474 24.1481 25.3924C24.4368 25.1083 24.7369 24.8126 25.0318 24.5001C25.0782 24.4509 25.1882 24.3431 25.351 24.1865C25.6499 23.8988 26.1266 23.4462 26.7141 22.8888C28.45 21.2407 31.1517 18.6761 33.0795 16.744C33.7816 16.0399 34.3813 15.4199 34.7938 14.9587C35.1467 14.5641 35.3628 14.2858 35.3893 14.1709C35.4125 14.0696 35.4341 13.6918 35.2144 13.4923C34.9947 13.2929 34.6703 13.3611 34.4362 13.4153C34.3763 13.4292 34.1544 13.5571 33.7708 13.799C33.3168 14.0852 32.6365 14.531 31.7298 15.1364C29.8049 16.4213 26.8595 18.4252 22.8935 21.1482ZM18.4194 28.6832C18.4842 29.3467 18.6747 30.0237 19.017 30.6933C19.7242 32.0761 20.9111 33.0803 22.0474 33.8449C23.5573 34.8607 24.764 35.6996 25.9912 36.553L26.1562 36.6679C27.4414 37.5613 28.7595 38.476 30.4441 39.6034C30.8146 39.8516 31.1628 40.1047 31.5698 40.4009C31.6566 40.464 31.7461 40.5291 31.839 40.5965C32.3292 40.9522 32.9233 41.3772 33.5586 41.7583C34.8491 42.5323 36.6643 43.3456 38.93 43.1325C42.7636 42.7724 44.3815 39.2141 44.9665 36.021C46.2092 29.2376 48.6882 14.351 49.2721 8.08785C49.3621 7.1222 49.2591 6.088 49.1726 5.5714C49.0841 5.0447 48.7832 3.42095 47.2808 2.1761C46.4366 1.47685 45.5291 1.17037 44.9383 1.02626C44.3249 0.876544 43.7393 0.826419 43.272 0.834434L43.2679 0.834489C41.8472 0.860324 40.4131 1.27703 38.3588 2.03825C36.2352 2.8251 32.999 4.1623 27.794 6.37275C24.1086 7.93785 16.7899 11.1567 5.86775 16.0152C4.85665 16.4293 3.84726 16.9308 3.00795 17.5672C2.24287 18.1472 0.967086 19.3332 0.732341 21.2452C0.561071 22.6398 0.961616 23.9554 1.78722 24.9914C2.49491 25.8796 3.37536 26.3883 3.95915 26.6771C4.81553 27.1004 5.9788 27.4718 6.85425 27.7512C7.0674 27.8191 7.2635 27.8819 7.43395 27.9385C8.4477 28.2748 9.66445 28.6495 10.8328 28.9488C11.9088 29.224 13.2645 29.5222 14.4183 29.5476C15.8306 29.5788 17.1729 29.2384 18.4194 28.6832Z" fill="#018EFF"/>
</g>
<defs>
<filter id="filter0_i_29_246" x="0.693359" y="0.833618" width="48.6138" height="46.3334" filterUnits="userSpaceOnUse" color-interpolation-filters="sRGB">
<feFlood flood-opacity="0" result="BackgroundImageFix"/>
<feBlend mode="normal" in="SourceGraphic" in2="BackgroundImageFix" result="shape"/>
<feColorMatrix in="SourceAlpha" type="matrix" values="0 0 0 0 0 0 0 0 0 0 0 0 0 0 0 0 0 0 127 0" result="hardAlpha"/>
<feOffset dy="4"/>
<feGaussianBlur stdDeviation="2"/>
<feComposite in2="hardAlpha" operator="arithmetic" k2="-1" k3="1"/>
<feColorMatrix type="matrix" values="0 0 0 0 0 0 0 0 0 0 0 0 0 0 0 0 0 0 0.25 0"/>
<feBlend mode="normal" in2="shape" result="effect1_innerShadow_29_246"/>
</filter>
</defs>
</svg>
