<svg width="39" height="44" viewBox="0 0 39 44" fill="none" xmlns="http://www.w3.org/2000/svg">
<g clip-path="url(#clip0_27_628)">
<path d="M6.23445 30.8615C5.95915 30.7009 5.5118 30.7066 5.24224 30.8615L1.07268 33.2703C0.797387 33.4309 0.797387 33.689 1.07268 33.8438L18.4334 43.8634C18.7087 44.0182 18.9324 43.8921 18.9324 43.5766V38.7647C18.9324 38.4493 18.7087 38.0593 18.4334 37.9044L6.23445 30.8615Z" fill="#018EFF"/>
<path d="M1.07268 10.0886C0.797387 10.2435 0.797387 10.5073 1.07268 10.6621L5.24224 13.071C5.51753 13.2316 5.96489 13.2316 6.23445 13.071L18.4334 6.02803C18.7087 5.86744 18.9324 5.48318 18.9324 5.16774V0.355825C18.9324 0.0403835 18.7087 -0.0915282 18.4334 0.06906L1.07268 10.0886Z" fill="#018EFF"/>
<path d="M0 31.9857C0 32.3011 0.223676 32.433 0.498971 32.2725L4.66853 29.8694C4.94382 29.7145 5.1675 29.3245 5.1675 29.0091V14.9232C5.1675 14.6077 4.94382 14.2235 4.66853 14.0629L0.498971 11.6598C0.223676 11.505 0 11.6311 0 11.9466V31.9857Z" fill="#018EFF"/>
<path d="M33.7639 30.8617C33.4886 30.7011 33.0412 30.7011 32.7717 30.8617L20.5727 37.9046C20.2974 38.0652 20.0737 38.4494 20.0737 38.7649V43.5768C20.0737 43.8922 20.2974 44.0242 20.5727 43.8636L37.9334 33.844C38.2087 33.6892 38.2087 33.4253 37.9334 33.2705L33.7639 30.8617Z" fill="#018EFF"/>
<path d="M34.3373 14.063C34.0621 14.2178 33.8384 14.6078 33.8384 14.9233V29.0091C33.8384 29.3246 34.0621 29.7089 34.3373 29.8694L38.5069 32.2725C38.7822 32.4274 39.0059 32.3012 39.0059 31.9858V11.9466C39.0059 11.6312 38.7822 11.4993 38.5069 11.6599L34.3373 14.063Z" fill="#018EFF"/>
<path d="M20.5727 0.0689866C20.2974 -0.0858663 20.0737 0.0403101 20.0737 0.355751V5.16766C20.0737 5.4831 20.2974 5.8731 20.5727 6.02796L32.7717 13.0709C33.047 13.2315 33.4943 13.2258 33.7639 13.0709L37.9334 10.6621C38.2087 10.5015 38.2087 10.2434 37.9334 10.0885L20.5727 0.0689866Z" fill="#018EFF"/>
<path d="M26.841 16.3226V28.1602C26.841 28.2979 26.7665 28.424 26.6518 28.4871L19.6891 32.5076C19.5687 32.5764 19.4253 32.5764 19.3106 32.5076L12.348 28.4871C12.2275 28.4183 12.1587 28.2921 12.1587 28.1602V16.3226C12.1587 16.0301 12.4741 15.8465 12.7322 15.9899L15.3246 17.4868C15.445 17.5557 15.5138 17.6818 15.5138 17.8195V26.2217C15.5138 26.3593 15.5884 26.4855 15.7031 26.5543L19.3106 28.6362C19.431 28.7051 19.5744 28.7051 19.6891 28.6362L23.2966 26.5543C23.4171 26.4855 23.4859 26.3593 23.4859 26.2217V17.8195C23.4859 17.6818 23.5605 17.5557 23.6752 17.4868L26.2675 15.9899C26.5199 15.8408 26.841 16.0243 26.841 16.3226Z" fill="#018EFF"/>
</g>
<defs>
<clipPath id="clip0_27_628">
<rect width="39" height="43.9266" fill="white"/>
</clipPath>
</defs>
</svg>
