<svg width="44" height="44" viewBox="0 0 44 44" fill="none" xmlns="http://www.w3.org/2000/svg">
<path d="M18.6396 13.8066L11.7132 14.397L8.05759 18.0526C7.82869 18.2788 7.66766 18.5644 7.59276 18.8774C7.51785 19.1903 7.53205 19.518 7.63374 19.8232C7.73543 20.1285 7.92057 20.3992 8.16817 20.6048C8.41577 20.8102 8.71597 20.9423 9.03475 20.9859L13.9811 21.5653M29.3628 24.5298L28.7724 31.4598L25.1168 35.1154C24.8902 35.3417 24.6052 35.5004 24.2937 35.5737C23.9821 35.6471 23.6562 35.6321 23.3526 35.5307C23.049 35.4292 22.7798 35.2452 22.5748 34.9993C22.3699 34.7534 22.2375 34.4552 22.1925 34.1383L21.4592 29.2763M36.4303 8.79062C36.3438 8.27745 36.0996 7.80396 35.7316 7.43596C35.3636 7.06797 34.8901 6.82377 34.3769 6.73728C31.4143 6.22579 25.3825 5.59512 22.6803 8.30112C19.6168 11.3665 13.1268 22.9953 11.1119 26.6766C10.9333 27.0022 10.8657 27.3772 10.9193 27.7448C10.9729 28.1123 11.1448 28.4523 11.4089 28.7134L12.9269 30.2443L14.4541 31.7696C14.7149 32.0341 15.0549 32.2063 15.4224 32.2602C15.79 32.3142 16.165 32.2468 16.4909 32.0685C20.1723 30.0482 31.7992 23.5582 34.8628 20.4965C37.5669 17.7867 36.94 11.7515 36.4303 8.79062ZM31.0017 15.6143C31.0017 16.5283 30.6387 17.4051 29.9922 18.0515C29.3459 18.6978 28.4692 19.061 27.5551 19.061C26.6409 19.061 25.7643 18.6978 25.1179 18.0515C24.4716 17.4051 24.1084 16.5283 24.1084 15.6143C24.1084 14.7002 24.4716 13.8235 25.1179 13.1772C25.7643 12.5308 26.6409 12.1676 27.5551 12.1676C28.4692 12.1676 29.3459 12.5308 29.9922 13.1772C30.6387 13.8235 31.0017 14.7002 31.0017 15.6143Z" stroke="#00A3FF" stroke-width="2.51429" stroke-linecap="round" stroke-linejoin="round"/>
</svg>
