<svg width="52" height="52" viewBox="0 0 52 52" fill="none" xmlns="http://www.w3.org/2000/svg">
<g clip-path="url(#clip0_71_4)">
<mask id="mask0_71_4" style="mask-type:luminance" maskUnits="userSpaceOnUse" x="0" y="0" width="52" height="52">
<path d="M0.5 0.5H51.5V51.5H0.5V0.5Z" fill="white" stroke="white"/>
</mask>
<g mask="url(#mask0_71_4)">
<mask id="mask1_71_4" style="mask-type:luminance" maskUnits="userSpaceOnUse" x="-3" y="-6" width="58" height="58">
<path d="M-2.5 51.5V-5.5H54.5V51.5H-2.5Z" fill="white" stroke="#00A3FF"/>
</mask>
<g mask="url(#mask1_71_4)">
<path d="M25.9721 39.8745L35.0492 17.2468C35.4083 16.3501 35.1986 15.3258 34.5165 14.6437L27.705 7.8322C26.7626 6.8922 25.2369 6.8922 24.2969 7.8322L17.4855 14.6437C16.8009 15.3258 16.5937 16.3501 16.9528 17.2468L26.0299 39.8745" stroke="#00A3FF" stroke-width="3" stroke-linecap="round" stroke-linejoin="round"/>
<path d="M6.71851 15.7693H45.283" stroke="#00A3FF" stroke-width="3" stroke-linecap="round" stroke-linejoin="round"/>
<path d="M26.0418 39.8721L46.0978 17.5457C46.9824 16.5623 46.9076 15.0486 45.9315 14.1568L37.845 6.75967C37.4015 6.35233 36.8206 6.12817 36.218 6.12817H26.0177H25.9864H15.7885C15.1859 6.12817 14.6051 6.35233 14.1616 6.75967L6.07025 14.1568C5.09409 15.0486 5.02178 16.5623 5.90395 17.5457L25.9599 39.8721" stroke="#00A3FF" stroke-width="3" stroke-linecap="round" stroke-linejoin="round"/>
</g>
</g>
</g>
<defs>
<clipPath id="clip0_71_4">
<rect width="52" height="52" fill="white"/>
</clipPath>
</defs>
</svg>
